<svg fill="none" height="910" viewBox="0 0 1501 910" width="1501" xmlns="http://www.w3.org/2000/svg" xmlns:xlink="http://www.w3.org/1999/xlink"><linearGradient id="a" gradientUnits="userSpaceOnUse" x1="225" x2="1501" y1="46.9999" y2="752.5"><stop offset="0" stop-color="#e0e7e4"/><stop offset="1" stop-color="#f1f7f9" stop-opacity="0"/></linearGradient><path d="m1.0006 455.122v-.004c-.13679-84.275 23.2534-169.645 72.2244-245.714 135.832-210.82992 416.659-271.848 627.587-136.13 54.575 35.159 100.944 81.535 136.098 136.118 53.206 87.805 167.46 115.923 255.26 62.713v-.002c5.65-3.447 11.03-7.169 16.26-11.164 107.18-81.523 260.23-60.766 341.74 46.292 33.58 44.245 49.83 96.271 49.83 147.752 0 51.618-16.25 103.508-49.83 147.753-81.51 107.194-234.56 127.951-341.74 46.291-5.24-3.999-10.75-7.718-16.25-11.159l-.01-.007c-87.8-53.21-202.054-25.092-255.26 62.712-35.154 54.584-81.523 100.96-136.098 136.119-210.791 135.718-491.755 74.836-627.4497-136.13l-.0018-.002c-49.1065-75.794-72.496691-161.026-72.3599-245.438z" stroke="url(#a)" stroke-width="2"/></svg>